<?xml version="1.0" standalone="no"?>
<!DOCTYPE svg PUBLIC "-//W3C//DTD SVG 20010904//EN"
 "http://www.w3.org/TR/2001/REC-SVG-20010904/DTD/svg10.dtd">
<svg version="1.0" xmlns="http://www.w3.org/2000/svg"
 width="1024.000000pt" height="1024.000000pt" viewBox="0 0 1024.000000 1024.000000"
 preserveAspectRatio="xMidYMid meet">

<g transform="translate(0.000000,1024.000000) scale(0.100000,-0.100000)"
fill="#000000" stroke="none">
<path d="M7276 8418 c-8 -13 -24 -63 -36 -113 -61 -263 -261 -466 -512 -521
-97 -22 -118 -35 -118 -79 0 -47 17 -60 118 -90 283 -86 458 -273 512 -549 12
-61 44 -106 75 -106 32 0 62 45 79 120 10 41 38 117 63 169 77 161 240 302
408 352 129 39 140 44 153 71 9 20 10 32 1 52 -12 26 -30 34 -164 75 -104 31
-209 97 -290 182 -89 94 -138 186 -169 318 -13 56 -32 111 -42 122 -23 26 -60
24 -78 -3z"/>
<path d="M3020 7643 c-55 -9 -158 -47 -220 -80 -204 -110 -339 -292 -385 -519
-14 -71 -15 -271 -13 -1964 3 -2105 -3 -1918 73 -2075 76 -156 193 -273 350
-350 172 -85 83 -79 1224 -83 753 -2 1017 0 1027 9 26 21 14 42 -79 138 -51
53 -118 132 -149 176 -31 45 -66 90 -78 100 -22 19 -44 20 -854 25 l-831 5
-50 27 c-62 32 -129 103 -158 166 l-22 47 0 1855 0 1855 27 51 c31 58 88 112
157 146 l46 23 1255 3 c1077 2 1259 0 1275 -12 19 -14 20 -32 26 -388 4 -272
9 -383 19 -411 19 -53 72 -111 128 -139 47 -23 51 -23 448 -26 369 -3 403 -4
418 -21 13 -15 16 -58 18 -306 l3 -289 25 -12 c14 -7 61 -22 105 -34 44 -12
118 -37 165 -57 90 -38 127 -44 141 -21 5 7 9 173 9 370 0 444 -6 483 -96 639
-29 50 -140 168 -508 537 -486 488 -548 543 -673 594 l-58 23 -1370 1 c-753 1
-1381 0 -1395 -3z"/>
<path d="M8006 7011 c-10 -11 -26 -54 -37 -96 -41 -167 -141 -272 -313 -330
-49 -16 -94 -38 -100 -48 -16 -26 4 -50 55 -65 82 -24 190 -84 238 -133 56
-57 105 -144 121 -214 15 -66 35 -95 65 -95 28 0 41 22 69 122 42 145 192 285
335 312 75 14 105 61 59 90 -13 7 -46 19 -75 26 -156 36 -297 188 -332 360
-18 82 -50 110 -85 71z"/>
<path d="M3495 6125 c-22 -8 -57 -32 -77 -53 -92 -99 -67 -255 52 -322 l45
-25 635 -3 c349 -2 654 0 676 3 57 8 125 55 154 107 54 94 18 219 -78 275
l-47 28 -660 2 c-551 2 -667 0 -700 -12z"/>
<path d="M6170 5314 c-303 -56 -506 -130 -690 -252 -327 -218 -552 -567 -615
-957 -20 -120 -19 -337 1 -456 100 -583 548 -1039 1149 -1167 163 -35 418 -37
567 -4 280 62 496 174 692 362 240 231 380 494 437 830 22 124 17 365 -9 497
-61 304 -180 531 -392 744 -204 206 -409 316 -705 379 -97 20 -372 36 -435 24z
m879 -788 c62 -33 121 -133 107 -184 -2 -9 -7 -30 -11 -47 -5 -22 -134 -158
-503 -528 -273 -274 -514 -507 -534 -518 -45 -23 -118 -25 -161 -3 -38 19
-532 507 -553 546 -18 34 -18 119 0 161 16 39 61 82 99 96 36 14 98 14 134 0
15 -6 107 -89 203 -185 97 -96 182 -174 190 -174 8 0 199 184 425 410 255 254
423 415 445 424 45 19 123 20 159 2z"/>
<path d="M3508 5266 c-56 -20 -85 -42 -113 -84 -31 -47 -41 -114 -25 -172 15
-55 82 -124 137 -139 52 -15 924 -15 976 0 77 21 146 111 147 190 0 79 -45
155 -113 192 -42 22 -47 22 -507 24 -371 2 -473 0 -502 -11z"/>
</g>
</svg>
